<?xml version="1.0" encoding="UTF-8" standalone="no"?>
<!-- Created with Inkscape (http://www.inkscape.org/) -->

<svg xmlns:dc="http://purl.org/dc/elements/1.1/" xmlns:cc="http://creativecommons.org/ns#" xmlns:rdf="http://www.w3.org/1999/02/22-rdf-syntax-ns#" xmlns:svg="http://www.w3.org/2000/svg" xmlns="http://www.w3.org/2000/svg" xmlns:sodipodi="http://sodipodi.sourceforge.net/DTD/sodipodi-0.dtd" xmlns:inkscape="http://www.inkscape.org/namespaces/inkscape" width="1020.1012" height="784.30487" id="svg2" version="1.1" inkscape:version="0.48.5 r10040" sodipodi:docname="Walt Disney Pictures 1985 Print Logo.svg" inkscape:export-filename="C:\Users\iampears\Pictures\Erik Mokracek Pictures logo.png" inkscape:export-xdpi="90" inkscape:export-ydpi="90">
  <defs id="defs4">
    <inkscape:perspective sodipodi:type="inkscape:persp3d" inkscape:vp_x="0 : 96.377998 : 1" inkscape:vp_y="0 : 1000 : 0" inkscape:vp_z="192.756 : 96.377998 : 1" inkscape:persp3d-origin="96.377998 : 64.251999 : 1" id="perspective73" />
  </defs>
  <sodipodi:namedview id="base" pagecolor="#ffffff" bordercolor="#666666" borderopacity="1.0" inkscape:pageopacity="0.0" inkscape:pageshadow="2" inkscape:zoom="0.56275973" inkscape:cx="725.1796" inkscape:cy="401.29351" inkscape:document-units="px" inkscape:current-layer="layer1" showgrid="false" fit-margin-top="0" fit-margin-left="0" fit-margin-right="0" fit-margin-bottom="0" inkscape:window-width="1366" inkscape:window-height="706" inkscape:window-x="-8" inkscape:window-y="-8" inkscape:window-maximized="1" />
  <metadata id="metadata7">
    <rdf:RDF>
      <cc:Work rdf:about="">
        <dc:format>image/svg+xml</dc:format>
        <dc:type rdf:resource="http://purl.org/dc/dcmitype/StillImage" />
        <dc:title></dc:title>
      </cc:Work>
    </rdf:RDF>
  </metadata>
  <g inkscape:label="Layer 1" inkscape:groupmode="layer" id="layer1" transform="translate(17.466016,-99.360013)">
    <g id="g3138" style="fill:black">
      <path style="fill:black;fill-opacity:1" id="path3" d="m 452.33674,521.94898 c 48.09819,-35.41179 88.0321,-0.74946 90.26631,-0.74946 h 236.722 c -5.17836,-5.1473 -14.84602,-22.12976 -18.5262,-31.67491 H 234.84567 c -6.62956,10.29981 -13.34263,25.78336 -20.71344,32.42437 h 238.20451 l 0,0 z" inkscape:connector-curvature="0" />
      <path style="fill:black;fill-opacity:1" id="path5" d="M 712.72154,446.72236 H 316.93205 c 0.74126,5.89676 -4.42666,31.71655 -5.1627,32.41916 H 755.64137 C 746.00503,459.26013 743.7917,451.1202 740.83711,446.72236 h -10.33062 c -2.26031,5.89676 -8.19559,12.53777 -8.19559,12.53777 0,0 -6.63999,-5.14731 -9.58936,-12.53777 l 0,0 z" inkscape:connector-curvature="0" />
      <path inkscape:connector-curvature="0" id="path7" d="m 500.32052,204.9844 c -34.87487,0 -68.65209,4.7988 -100.71875,13.78125 l -0.0312,-0.0625 c -62.94948,17.61742 -119.32027,51.35559 -164.3438,96.34375 -67.96596,67.98188 -110.15625,161.73128 -110.15625,265.0625 0,9.10797 0.36315,18.08985 1,27.0625 l 4.875,-0.0312 c -0.6734,-8.90499 -1,-17.92328 -1,-27.03125 0,-26.70638 2.84156,-52.78214 8.25,-77.90625 l 0.15625,0 c 15.27198,-70.82446 50.89112,-134.25626 100.40625,-183.78125 67.02634,-67.0867 159.60834,-108.625 261.5625,-108.625 0.88742,0.005 1.85214,0 2.75,0 l -0.125,-4.8125 -2.625,0 z" style="fill:black;fill-opacity:1" />
      <path style="fill:black;fill-opacity:1" id="path9" d="m 640.23496,406.90752 h -26.63827 v 5.89676 h -1.4773 l -2.95459,-5.89676 H 403.52862 l -5.17836,20.63085 h -17.80061 c 0,0 -1.43553,0 -1.43553,-2.98741 0,-1.45207 0,-10.29461 7.35515,-17.64344 h -78.3801 c 2.21855,3.65359 6.61389,11.04406 8.13817,19.8866 0.69427,3.69523 1.43553,10.33624 1.43553,10.33624 61.45125,0 172.42578,0 335.89383,0 -8.14338,-9.58679 -13.32174,-22.12456 -13.32174,-30.22284 l 0,0 z" inkscape:connector-curvature="0" />
      <path style="fill:black;fill-opacity:1" id="path11" d="m 600.93789,218.71605 -1.08056,4.6893 c 62.08289,17.3624 117.6354,50.6247 162.04818,95.01955 67.10464,67.10751 108.64636,159.6653 108.64636,261.66936 0,9.10797 -0.33409,18.12746 -1.00749,27.03245 l 4.87038,0.0312 c 0.63685,-8.97265 1.00226,-17.95571 1.00226,-27.06368 0,-103.33122 -42.16813,-197.08085 -110.13409,-265.06273 C 720.2594,270.04336 663.88732,236.33347 600.93789,218.71605 l 0,0 z" inkscape:connector-curvature="0" />
      <path style="fill:black;fill-opacity:1" id="path13" d="M 231.90674,533.03468 V 561.056 h 195.2899 c 0,0 5.9405,-16.98246 14.04735,-28.02132 H 231.90674 l 0,0 z" inkscape:connector-curvature="0" />
      <path style="fill:black;fill-opacity:1" id="path15" d="m 760.05759,532.31645 h -207.1448 c 2.97547,2.92496 11.88621,18.45015 15.5664,28.74475 h 191.56796 l 0.0104,-28.74475 0,0 z" inkscape:connector-curvature="0" />
      <path style="fill:black;fill-opacity:1" id="path17" d="m 224.52549,606.80923 c 0,0.71303 196.75154,0 196.75154,0 0,0 0.74126,-21.41674 2.96503,-30.96189 h -192.3562 c 0,5.88115 -2.91805,24.32088 -7.36037,30.96189 l 0,0 z" inkscape:connector-curvature="0" />
      <path style="fill:black;fill-opacity:1" id="path19" d="m 771.0877,606.79362 c -7.39691,-9.56077 -10.34627,-28.02132 -10.34627,-30.95669 0,0 -188.62904,0.75466 -188.62904,0 0.73604,6.6254 3.68019,26.54323 2.22377,30.95669 H 771.0877 l 0,0 z" inkscape:connector-curvature="0" />
      <path style="fill:black;fill-opacity:1" id="path21" d="M 594.35532,352.34297 H 443.47298 l 3.70628,6.6254 v 38.35756 h 159.77221 c 0.005,0 -10.36716,-22.87401 -12.59615,-44.98296 l 0,0 z" inkscape:connector-curvature="0" />
      <path style="fill:black;fill-opacity:1" id="path23" d="m 444.93983,336.8334 h -9.58414 c 2.94415,6.6254 0.74648,0.72864 3.69585,7.35404 h 153.14787 c 0,0 -2.94414,-1.45207 -4.47364,-12.55339 v -25.08074 l -8.83244,-3.66401 v -15.46273 h -55.46378 v 15.46273 l -9.66244,5.14731 v 12.55338 c 0,0 -2.94415,0.72864 -7.39169,-7.35403 -3.6854,-7.43211 -5.17836,-14.76012 -5.17836,-14.76012 -4.40056,17.70069 -8.16948,23.57142 -8.16948,23.57142 -5.14704,10.31543 -10.33062,14.78614 -11.78181,14.78614 h -5.8883 c 0,0 -0.74648,-4.47071 5.14182,-9.61801 l -18.50011,-39.78882 h -2.94414 l -18.53665,39.78882 c 5.16792,4.42387 4.42144,9.61801 4.42144,9.61801 l 0,0 z" inkscape:connector-curvature="0" />
      <polygon transform="matrix(5.2201199,0,0,5.204554,-2.7480911,36.192341)" style="fill:black;fill-opacity:1" id="polygon33" points="113.104,32.822 106.019,16.942 99.356,32.822 " />
      <path style="fill:black;fill-opacity:1" id="path41" d="m 515.90214,239.49263 c 0,11.10131 7.39169,13.29243 7.39169,13.29243 l -0.73082,25.81459 h 56.24158 v -22.11936 c 0.73081,-8.09308 8.1225,-3.69003 7.34993,-15.50436 h -7.34993 v -25.81459 h -55.51598 v 24.33649 l -7.38647,-0.005 0,0 z" inkscape:connector-curvature="0" />
      <path style="fill:black;fill-opacity:1" id="path49" d="m 340.6575,353.81066 c 0,0 -6.61912,21.38031 -25.1401,44.96214 h 62.9181 c 0,0 -15.57683,-19.8866 -25.91789,-44.96214 H 340.6575 l 0,0 z" inkscape:connector-curvature="0" />
      <path style="fill:black;fill-opacity:1" id="path75" d="m 666.80015,437.13036 h 38.50882 c -4.48408,-8.09828 -6.72873,-14.79134 -10.41936,-30.23846 H 678.6707 c -1.52427,11.77271 -9.65722,25.81459 -11.87055,30.23846 l 0,0 z" inkscape:connector-curvature="0" />
      <path style="fill:black;fill-opacity:1" id="path77" d="m 260.06407,446.72236 c -1.5034,7.39046 -9.66245,27.27706 -13.35307,32.41916 h 37.00021 c -5.92484,-5.85512 -11.11886,-23.57663 -14.08389,-32.41916 h -9.56325 l 0,0 z" inkscape:connector-curvature="0" />
      <path style="fill:black;fill-opacity:1" id="path83" d="m 614.2753,398.79362 h 25.89702 c 0,0 -2.20811,-19.89701 3.68018,-20.66208 l -11.04055,-25.05993 h -11.07188 l -11.88099,25.05993 c 6.66087,2.21714 4.41622,20.66208 4.41622,20.66208 l 0,0 z" inkscape:connector-curvature="0" />
      <polygon transform="matrix(5.2201199,0,0,5.204554,-2.7480911,36.192341)" style="fill:black;fill-opacity:1" id="polygon97" points="82.925,69.669 80.665,61.875 78.25,69.669 " />
      <polygon transform="matrix(5.2201199,0,0,5.204554,-2.7480911,36.192341)" style="fill:black;fill-opacity:1" id="polygon103" points="84.915,44.303 89.028,45.293 89.028,43.312 " />
      <polygon transform="matrix(5.2201199,0,0,5.204554,-2.7480911,36.192341)" style="fill:black;fill-opacity:1" id="polygon105" points="128.121,59.754 132.229,60.742 132.229,58.905 " />
      <polygon transform="matrix(5.2201199,0,0,5.204554,-2.7480911,36.192341)" style="fill:black;fill-opacity:1" id="polygon107" points="117.073,52.948 121.04,53.937 121.04,51.959 " />
      <polygon transform="matrix(5.2201199,0,0,5.204554,-2.7480911,36.192341)" style="fill:black;fill-opacity:1" id="polygon109" points="137.483,71.37 141.456,72.357 141.456,70.378 " />
      <polygon transform="matrix(5.2201199,0,0,5.204554,-2.7480911,36.192341)" style="fill:black;fill-opacity:1" id="polygon111" points="47.647,72.649 51.613,73.646 51.613,71.66 " />
      <polygon transform="matrix(5.2201199,0,0,5.204554,-2.7480911,36.192341)" style="fill:black;fill-opacity:1" id="polygon113" points="102.338,13.128 106.306,13.978 106.306,12.137 " />
      <polygon transform="matrix(5.2201199,0,0,5.204554,-2.7480911,36.192341)" style="fill:black;fill-opacity:1" id="polygon115" points="63.23,54.079 67.198,54.925 67.198,53.09 " />
      <polygon transform="matrix(5.2201199,0,0,5.204554,-2.7480911,36.192341)" style="fill:black;fill-opacity:1" id="polygon121" points="130.961,69.669 133.235,69.669 132.092,63.299 " />
      <polygon transform="matrix(5.2201199,0,0,5.204554,-2.7480911,36.192341)" style="fill:black;fill-opacity:1" id="polygon125" points="121.61,59.899 120.616,55.928 119.628,59.757 " />
      <polygon transform="matrix(5.2201199,0,0,5.204554,-2.7480911,36.192341)" style="fill:black;fill-opacity:1" id="polygon129" points="142.009,77.036 141.438,74.338 140.595,77.036 " />
      <polygon transform="matrix(5.2201199,0,0,5.204554,-2.7480911,36.192341)" style="fill:black;fill-opacity:1" id="polygon133" points="50.617,77.029 51.886,77.029 51.187,75.337 " />
      <polygon transform="matrix(5.2201199,0,0,5.204554,-2.7480911,36.192341)" style="fill:black;fill-opacity:1" id="polygon135" points="67.485,59.177 66.917,57.485 66.211,59.177 " />
      <polygon transform="matrix(5.2201199,0,0,5.204554,-2.7480911,36.192341)" style="fill:black;fill-opacity:1" id="polygon149" points="88.731,46.433 88.451,47.282 89.019,47.282 " />
      <flowRoot style="font-size:40px;font-style:normal;font-variant:normal;font-weight:normal;font-stretch:normal;line-height:125%;letter-spacing:0px;word-spacing:0px;fill:black;fill-opacity:1;stroke:none;font-family:Star Jedi;-inkscape-font-specification:Star Jedi" id="flowRoot3094" xml:space="preserve"><flowRegion id="flowRegion3096"><rect y="910" x="616" height="264" width="844" id="rect3098" style="fill:black" /></flowRegion><flowPara id="flowPara3100" /></flowRoot>      <path style="fill:black;fill-rule:nonzero;stroke:white;stroke-width:4.15679884;stroke-opacity:1" d="m 119.2893,522.70316 -1.125,3.4375 c 22.28813,18.80153 32.24489,45.45074 36.78125,73.25 2.17446,40.95843 -5.66408,80.85106 -36.78125,109.90625 -10.04744,7.68555 -24.3284,15.35464 -37.75,8.8125 -4.29268,-2.15567 -9.78782,-7.76392 -11.0625,-13.3125 19.00771,-16.66456 35.55703,-35.6246 38.78125,-58.90625 2.39939,-16.64578 2.39037,-34.36505 -11.125,-44.375 -9.80377,-5.51113 -23.22719,-0.005 -31.90625,5.5625 -12.44687,7.85427 -19.10081,18.97781 -22.25,30.09375 -6.8608,20.90101 -2.34261,47.59906 2.15625,68.6875 -5.60482,4.49886 -13.23924,5.58725 -20.0625,4.5 C 13.79211,705.86055 9.4515,694.81314 8.2893,684.76566 5.08387,632.67253 23.83635,585.93172 61.6643,550.48441 l 1.0625,-3.40625 c 0,-2.13693 -3.19407,-2.125 -4.46875,-2.125 -13.23417,4.5551 -25.48377,13.25308 -35.53125,25.625 -22.08191,25.39983 -33.18864,55.48305 -37.6875,87.5 -2.13697,24.53754 3.36182,49.9653 25.59375,61.0625 11.0597,5.51113 27.72776,3.41112 38.84375,-2.15625 5.60482,9.99124 12.18352,17.69488 21.125,22.15625 28.79277,13.29041 55.46751,-3.37346 75.375,-22.15625 11.15344,-10.04748 15.55791,-24.13401 22.15625,-35.25 l 1.03125,-2.53125 c 19.06395,-48.90644 10.06463,-111.00894 -30.96875,-146.4375 -5.43614,-3.4304 -10.99578,-10.0625 -18.90625,-10.0625 z m -38.25,87.34375 c 0.54361,0.0164 1.13765,0.13913 1.71875,0.40625 8.67906,13.25291 4.44916,30.98489 1.09375,45.4375 -4.46137,11.13469 -10.07094,22.25876 -18.75,32.25 -1.38717,-1.04976 0.0122,-3.37553 -1.375,-5.53125 0,-14.5276 1.37581,-30.09738 4.5625,-44.4375 1.04972,-8.94148 4.3824,-17.65199 8.9375,-25.5625 0.78732,-1.61679 2.18166,-2.6117 3.8125,-2.5625 z" id="path5055" inkscape:connector-curvature="0" />
      <path style="fill:black;fill-rule:nonzero;stroke:white;stroke-width:4.15679884;stroke-opacity:1" d="m 219.13305,622.17191 c -0.88718,-0.01 -1.76583,0.16413 -2.5625,0.46875 -2.38064,1.08721 -3.4375,3.18186 -3.4375,5.5625 -7.6668,9.80377 -14.27014,18.7713 -19.875,28.78125 -4.44262,8.75405 -7.77018,17.70816 -13.375,25.375 l -11.125,0 c 2.34315,3.4304 5.50681,11.13811 7.8125,13.5 -3.31792,7.66684 -6.74404,14.28329 -7.8125,22.25 2.34315,5.51113 1.04544,13.13214 7.8125,16.5625 2.23066,1.08725 6.63832,1.10572 9.84375,-1.03125 l 10.125,-30.125 26.6875,0 1.03125,12.15625 c 0,7.92926 6.60795,13.49457 13.46875,16.71875 2.06198,-1.12471 3.1875,-4.3009 3.1875,-7.75 0,-17.69558 -1.10708,-36.69197 -4.40625,-54.40625 -2.17446,-14.35887 -6.71363,-28.81615 -11.15625,-43.34375 -0.8295,-3.20542 -3.55722,-4.68976 -6.21875,-4.71875 z m -2.5625,35.90625 c 2.15572,4.48011 3.1875,10.0011 3.1875,14.5 l 0,7.65625 c -4.2739,1.04976 -9.81988,1.0625 -14.28125,1.0625 3.20543,-8.71656 6.63238,-16.60167 11.09375,-23.21875 z" id="path5057" inkscape:connector-curvature="0" />
      <path style="fill:black;fill-rule:nonzero;stroke:white;stroke-width:4.15679884;stroke-opacity:1" d="m 273.15989,624.76367 c 5.51112,7.68559 2.09947,18.78278 0,27.76176 -4.55511,15.55857 -7.89177,28.77403 -9.03522,45.47604 3.4866,4.51761 9.03522,0 12.16566,0 7.94801,-2.15571 14.56509,-7.70429 22.25068,-7.70429 2.38064,2.11822 2.38064,6.65458 1.29339,10.02869 -3.44911,12.1657 -16.68327,22.23193 -27.78047,25.39987 -5.51113,1.10596 -10.04748,0 -15.57735,-2.11822 -17.71428,-15.57731 -7.91048,-44.40754 -3.44911,-63.3965 l 6.65458,-23.28165 c 3.35541,-4.48011 6.86075,-12.1657 13.47784,-12.1657" id="path5059" inkscape:connector-curvature="0" />
      <path style="fill:black;fill-rule:nonzero;stroke:white;stroke-width:4.15679884;stroke-opacity:1" d="m 296.13305,624.76566 c -3.14919,3.4304 -6.59375,7.67017 -6.59375,13.21875 3.44915,14.5276 18.93993,18.99513 28.6875,24.5625 l -2.03125,4.46875 c -7.70434,22.1944 -11.0046,49.96835 -4.5,73.25 4.51761,6.63583 10.06441,14.23722 17.75,13.1875 2.3244,-1.03101 4.4628,-2.1131 5.625,-4.4375 -3.31792,-26.44959 -2.21141,-54.20021 2.25,-79.84375 l 2.15625,-2.15625 c 5.49238,1.06846 11.10141,1.0619 16.59375,-1.28125 1.12475,0 3.43803,-1.03775 5.59375,-2.125 4.48011,-3.39286 9.03778,-7.71363 10.03125,-12.15625 -2.23066,-8.94152 -2.21501,-20.04457 -12.1875,-23.25 -13.3654,-3.4304 -24.42072,6.58378 -32.21875,16.6875 -9.99124,-2.38068 -21.10195,-5.60823 -28.75,-13.5 -2.41818,-2.15567 0.0119,-5.57524 -2.40625,-6.625 z m 61.15625,11.90625 c 1.38481,0.005 2.77202,0.26276 3.34375,1.3125 1.01226,3.4304 -2.16307,5.57533 -4.5625,6.90625 l -5.5,0 -5.59375,1 c 1.1622,-3.3929 4.48865,-7.90029 9.0625,-8.96875 0.50613,0 1.86519,-0.25468 3.25,-0.25 z" id="path5061" inkscape:connector-curvature="0" />
      <path style="fill:black;fill-rule:nonzero;stroke:white;stroke-width:4.15679884;stroke-opacity:1" d="m 403.5393,537.04691 c -16.46295,0.2181 -33.09892,2.69125 -49.75,7.90625 -7.77928,2.13693 -10.07582,11.04543 -13.28125,17.71875 3.20543,5.52983 11.09541,4.46279 17.65625,5.53125 1.08725,-1.06846 6.60597,-1.0571 5.59375,-4.46875 -3.41165,-4.49886 -8.98831,-2.15685 -12.15625,-4.5 1.04976,-2.11822 4.21935,-2.11279 6.5625,-3.21875 39.90872,-6.80455 79.79617,-0.0217 114.25,13.25 41.12712,16.66452 87.7169,40.96122 105.375,85.40625 5.5673,16.62707 3.4151,37.74655 -11,48.84375 -27.8742,22.21314 -66.6524,24.58576 -101.03125,17.78125 -1.06851,-20.95725 -1.0625,-37.58057 -1.0625,-59.8125 2.17446,-2.30565 4.51328,-1.28125 7.71875,-1.28125 18.93272,2.34315 37.78542,3.39598 54.375,12.375 0,2.11818 -2.15029,4.25032 -3.21875,5.5625 -2.28695,4.2177 -8.90601,4.22643 -7.875,9.8125 3.44915,1.25594 8.96364,2.34375 13.5,2.34375 5.51113,-3.4304 13.21305,-8.99537 15.31255,-15.59375 1.3496,-6.61708 -1.0258,-12.14489 -4.25,-16.625 -20.07622,-17.71428 -47.819,-20.07468 -73.4063,-18.78125 l -2.15625,-1.3125 -1.03125,-26.46875 c -1.10596,-7.87298 -4.55191,-15.53811 -12.21875,-17.9375 -7.87302,13.47784 -6.87552,31.17919 -8.9375,47.84375 -11.0972,2.11822 -22.25904,4.48239 -33.28125,9 -8.99776,3.18673 -17.71454,7.6457 -25.71875,15.3125 -3.18669,3.4304 -4.19976,7.90739 -3.1875,12.40625 13.25291,23.22541 37.8746,40.98405 61.15625,52.0625 1.04972,7.68559 1.04513,16.72017 6.59375,22.25 4.44262,1.03101 8.96956,0 12.15625,0 5.52987,-2.15567 4.46274,-9.00107 5.53125,-13.3125 38.85896,9.86005 82.21435,6.65036 114.43745,-16.59375 19.87,-15.61485 29.8424,-38.82521 24.3126,-64.46875 -8.7354,-26.67455 -28.8122,-49.97346 -52.0938,-68.71875 -43.29953,-29.76574 -95.09604,-53.02494 -148.875,-52.3125 z m 38.96875,124.4375 c 0,17.71432 -2.15625,34.37322 -2.15625,52.125 -20.11367,-6.65458 -40.13463,-17.77322 -53.40625,-35.46875 -1.01226,-4.49886 3.45702,-7.90625 6.625,-7.90625 6.63579,-3.22418 15.6457,-4.48153 23.3125,-5.53125 7.94801,-2.13697 16.66477,-2.15024 25.625,-3.21875 z" id="path5063" inkscape:connector-curvature="0" />
      <path style="fill:black;fill-rule:nonzero;stroke:white;stroke-width:4.15679884;stroke-opacity:1" d="m 648.5081,556.67191 c -4.8221,0.0612 -9.8704,0.78383 -14.75,1.71875 -9.9913,2.34315 -20.0332,9.99571 -27.8126,17.71875 -3.3179,3.4304 -5.538,7.90706 -7.6562,11.09375 -4.4426,8.97902 -2.2733,20.07042 4.3438,26.6875 l 0,10.03125 c 2.3619,4.48016 3.3196,6.625 6.75,6.625 3.2991,0 5.5752,-6.63154 6.625,-7.71875 8.7727,2.11822 17.746,3.23072 26.6874,1.09375 6.6734,-2.11818 11.0577,-4.48831 16.7188,-7.65625 9.8413,-6.86075 18.7764,-15.62752 24.25,-25.65625 2.1182,-6.59834 3.4733,-15.57638 -3.3125,-21.125 -3.2617,-1.08721 -6.5949,-4.48719 -11.0937,-3.25 l -4.3126,-5.5 c -4.4496,-3.12108 -10.2377,-4.14125 -16.4374,-4.0625 z m -17.5626,18.375 c 0.5592,-0.017 1.1283,0 1.7188,0 -7.873,7.89177 -16.6454,16.63348 -23.2812,25.59375 -2.3057,-2.32444 -1.1997,-6.56932 0,-8.96875 1.1434,-2.13693 3.3068,-5.53803 5.5937,-7.65625 3.2054,-3.41165 7.6259,-5.5631 11.0937,-7.90625 1.6168,-0.81541 3.1976,-1.01154 4.875,-1.0625 z m 35.8126,2.1875 c 2.9261,0.0203 5.6526,0.57493 7,3.375 1.0122,8.94152 -5.6142,15.56988 -12.25,20.03125 -2.0995,2.15572 -5.5197,3.18782 -8.9688,4.5 -8.7541,3.20543 -17.7522,4.23726 -26.4688,3.1875 7.6668,-13.27166 20.9474,-26.66356 35.4376,-30.9375 1.673,0 3.4942,-0.16844 5.25,-0.15625 z m -39.625,63.34375 c -3.3742,0 -4.5378,3.41303 -5.5313,5.53125 -3.4491,21.12593 -3.4375,42.2993 -3.4375,64.4375 1.031,7.74179 -1.0353,18.76304 7.9062,20.9375 4.2177,1.27468 9.8009,0.0117 13.25,-3.25 1.031,-25.5498 -1.0381,-49.89367 -3.4374,-74.46875 -1.0873,-5.52983 -2.133,-13.1875 -8.75,-13.1875 z" id="path5065" inkscape:connector-curvature="0" />
      <path style="fill:black;fill-rule:nonzero;stroke:white;stroke-width:4.15679884;stroke-opacity:1" d="m 661.26206,706.94296 c 7.9855,8.99776 22.17569,4.4989 32.31686,4.4989 11.02225,-2.13697 25.56856,-4.4989 31.17342,-12.1657 -2.41814,-10.06623 -12.24069,-10.06623 -19.04521,-12.18445 -16.66456,-3.37412 -34.37884,-2.3244 -51.04341,-5.54858 -3.22418,-1.29343 -5.52983,-5.56737 -6.65453,-8.96023 0,-8.97902 3.43035,-16.70206 11.15344,-21.14468 22.10066,-12.14696 56.55449,-15.53986 80.88585,-5.54862 2.41814,2.34319 0,4.51761 0,6.63583 -4.25519,4.46137 -10.85352,4.46137 -17.71428,5.54862 -18.78278,2.34315 -39.90872,1.29343 -57.623,8.94148 0,2.15572 4.53636,2.15572 6.61709,3.4304 21.12593,6.61708 51.00591,-3.4304 65.51476,18.764 3.20543,8.99776 2.15568,22.23193 -2.28695,28.88646 -12.2219,13.4029 -32.03565,15.53986 -49.80618,13.4029 -13.42163,-3.41166 -26.76828,-10.02874 -31.13591,-23.46908 -1.06847,-5.51113 1.04971,-9.82252 4.36763,-13.21542 9.8975,-7.72308 23.28165,-5.60486 36.57205,-4.51761 6.86076,1.06846 15.53982,4.51761 19.06395,6.65458 0,3.37411 0,7.85427 -15.5961,9.9912 -10.06618,1.08725 -24.40631,-12.12817 -35.40981,-5.56733 -2.38064,1.14345 -2.38064,4.48011 -1.34967,5.56733" id="path5067" inkscape:connector-curvature="0" />
      <path style="fill:black;fill-rule:nonzero;stroke:white;stroke-width:4.15679884;stroke-opacity:1" d="m 766.29185,648.23279 c 16.66456,15.59606 25.62479,35.4848 37.73425,52.09308 3.26168,0 1.1622,-3.20543 2.24941,-4.29264 0,-23.45033 -8.86649,-42.27061 -12.2219,-63.35905 0,-2.13697 -1.03097,-5.54858 1.06847,-6.61708 6.61708,1.0685 10.06622,7.68559 13.47787,11.11594 13.12169,18.7078 18.8015,42.21437 16.57083,66.58323 -2.30569,7.68559 -5.56736,17.71428 -14.50885,21.12593 -2.06198,2.09948 -6.63583,3.20543 -8.92277,1.04972 -16.66452,-13.17793 -22.1944,-33.29159 -33.27285,-49.95616 l -1.14345,3.41165 -3.20547,46.54451 c -1.14346,3.3929 -3.31788,6.59833 -5.47359,6.59833 -4.57385,0 -7.91052,-3.20543 -10.06623,-6.59833 -4.44262,-9.9912 -1.03097,-23.24411 -1.03097,-34.36006 2.06198,-14.50885 4.29264,-27.74301 11.0972,-39.88997 1.03097,-3.4491 4.33013,-5.56732 7.64805,-3.4491" id="path5069" inkscape:connector-curvature="0" />
      <path style="fill:black;fill-rule:nonzero;stroke:white;stroke-width:4.15679884;stroke-opacity:1" d="m 842.2852,674.92604 c 5.58611,0 5.58611,-6.84204 7.64809,-10.00998 l 2.38064,-6.65458 c -6.59834,-2.38064 -14.50885,-3.37416 -16.66456,-12.37188 0,-2.11822 4.57385,-1.01222 5.58611,-2.11822 18.74525,-2.15568 37.8092,-6.59834 56.59199,-5.58607 6.54209,3.43039 13.15918,8.99772 12.12816,16.70201 -5.58607,4.48016 -14.28388,3.37416 -22.21314,4.48016 l -17.71428,0 -4.46137,13.21542 1.04972,0 c 8.96027,0 18.98896,-1.03101 26.67455,2.34314 2.38064,2.13697 1.10596,6.61709 1.10596,9.84127 -4.31139,4.44262 -12.14696,3.37415 -18.82024,3.37415 -5.54862,1.06847 -15.5961,-2.11822 -17.65808,5.56733 l -3.4491,13.23417 0,1.25593 c 13.49658,-1.25593 26.63701,-6.82326 39.92742,-4.44262 2.30569,3.18669 4.48011,7.68559 3.4304,11.07845 -14.58384,11.0972 -31.21091,22.25064 -51.09965,18.80153 -7.83553,-3.20543 -13.38411,-12.1657 -14.49006,-21.14468 -1.04976,-12.1657 11.0597,-20.91971 5.56732,-33.29159 -1.14345,-3.22422 3.4304,-3.22422 4.48012,-4.27394" id="path5071" inkscape:connector-curvature="0" />
      <path style="fill:black;fill-rule:nonzero;stroke:white;stroke-width:4.15679884;stroke-opacity:1" d="m 943.7268,640.39066 c -2.8191,0.2468 -5.6137,4.7638 -7.5,6.78125 -15.5586,17.73303 -27.8179,37.77489 -24.5937,62.125 1.1059,4.46137 3.4064,7.70739 4.4374,12.1875 -8.904,18.98896 -13.1511,41.17404 -17.5937,62.09375 0,5.52983 -2.4181,12.40142 0,17.96875 3.1117,6.59834 11.0329,14.25601 17.5937,13.1875 4.5739,-26.67451 12.2458,-52.06867 20.1563,-76.625 l 13.25,-1.03125 c 22.1756,-4.5551 44.3326,-25.63711 49.9375,-48.9375 3.4117,-13.21542 -1.1207,-25.3838 -9.0312,-35.375 -3.1868,-3.44915 -7.6324,-4.53721 -12.0938,-3.46875 -12.2219,6.57959 -22.29,15.6278 -32.2812,26.6875 -6.6171,7.74183 -13.2392,17.71449 -19.7813,25.625 -1.106,-2.34315 -1.0937,-4.4946 -1.0937,-7.90625 2.1556,-19.85121 22.1931,-33.27375 19.8124,-53.125 -0.4006,-0.15934 -0.816,-0.22276 -1.2187,-0.1875 z m 40.1563,26.46875 c 2.3121,0.16941 2.4104,3.71979 3.3124,4.6875 1.1248,12.1657 -3.3334,23.28323 -12.125,31.15625 -7.9855,6.61708 -16.715,11.0625 -26.7812,11.0625 4.5176,-7.91051 10.0514,-16.64602 15.6562,-25.625 5.5299,-6.59834 11.127,-14.28295 18.8126,-21.125 0.4287,-0.13121 0.7946,-0.18045 1.125,-0.15625 z" id="path5073" inkscape:connector-curvature="0" />
      <path d="m 212.79405,824.99199 c -5e-5,6.79052 -2.09365,12.707 -6.28081,17.74947 -4.39071,5.28543 -9.79859,7.92813 -16.22363,7.9281 l -19.27218,0 0,24.03029 9.81826,0 0,7.25858 -27.75145,0 0,-7.25858 10.24798,0 0,-65.07515 -10.24798,0 0,-7.2586 33.60566,0 c 6.91289,8e-5 12.9311,2.09368 18.05462,6.28083 5.3663,4.3928 8.04948,9.84114 8.04953,16.34506 z m -8.17097,1.89328 c -6e-5,-4.59611 -1.64682,-8.62192 -4.94027,-12.07741 -3.29356,-3.45538 -7.19688,-5.18309 -11.70998,-5.18316 l -17.26057,0 0,33.78626 17.80863,0 c 4.43213,4e-5 8.22386,-1.61609 11.37522,-4.8484 3.15125,-3.23223 4.72691,-7.12465 4.72697,-11.67729 z" style="font-size:72px;font-style:normal;font-variant:normal;font-weight:normal;font-stretch:normal;text-align:center;line-height:125%;letter-spacing:0px;word-spacing:0px;text-anchor:middle;fill:black;fill-opacity:1;stroke:none;font-family:Lubalin Graph Book;-inkscape-font-specification:Lubalin Graph Book" id="path3704" inkscape:connector-curvature="0" />
      <path d="m 274.90162,881.95843 -28.11577,0 0,-7.25858 10.30713,0 0,-65.07515 -10.30713,0 0,-7.2586 28.11577,0 0,7.2586 -9.88055,0 0,65.07515 9.88055,0 z" style="font-size:72px;font-style:normal;font-variant:normal;font-weight:normal;font-stretch:normal;text-align:center;line-height:125%;letter-spacing:0px;word-spacing:0px;text-anchor:middle;fill:black;fill-opacity:1;stroke:none;font-family:Lubalin Graph Book;-inkscape-font-specification:Lubalin Graph Book" id="path3706" inkscape:connector-curvature="0" />
      <path d="m 385.03237,861.09815 c -3.78248,7.36136 -8.84522,12.87148 -15.18824,16.53035 -6.34316,3.65888 -13.78393,5.48832 -22.32229,5.48832 -10.9362,0 -20.19601,-4.17786 -27.77948,-12.53361 -7.58349,-8.35572 -11.37522,-18.18539 -11.37522,-29.48903 0,-10.89665 3.75073,-20.29919 11.25223,-28.20763 7.50146,-7.90829 16.61959,-11.86247 27.35441,-11.86256 6.2216,9e-5 11.56876,0.81334 16.04146,2.43978 4.47261,1.62659 8.86377,4.49297 13.17354,8.59915 l 0,-9.69682 7.19632,0 0,20.1254 -6.95344,0 c -3.49598,-4.83692 -7.48026,-8.34322 -11.95286,-10.51888 -4.47272,-2.17555 -9.77938,-3.26335 -15.92002,-3.26342 -8.94536,7e-5 -16.6098,3.2121 -22.99334,9.63609 -6.3836,6.42412 -9.57538,14.1088 -9.57537,23.05407 -10e-6,9.10727 3.12067,16.98501 9.36207,23.63324 6.24134,6.64828 13.81496,9.97241 22.72086,9.97241 6.38353,0 11.73017,-0.99645 16.03991,-2.98939 4.79749,-2.2358 8.72105,-5.87494 11.77069,-10.91747 z" style="font-size:72px;font-style:normal;font-variant:normal;font-weight:normal;font-stretch:normal;text-align:center;line-height:125%;letter-spacing:0px;word-spacing:0px;text-anchor:middle;fill:black;fill-opacity:1;stroke:none;font-family:Lubalin Graph Book;-inkscape-font-specification:Lubalin Graph Book" id="path3708" inkscape:connector-curvature="0" />
      <path d="m 474.97856,823.22328 -6.82888,0 -0.0622,-13.59858 -16.89313,0 0,65.07515 9.88054,0 0,7.25858 -28.05662,0 0,-7.25858 10.24488,0 0,-65.07515 -16.95541,0 0,13.53942 -6.58599,0 0,-20.79802 55.25689,0 z" style="font-size:72px;font-style:normal;font-variant:normal;font-weight:normal;font-stretch:normal;text-align:center;line-height:125%;letter-spacing:0px;word-spacing:0px;text-anchor:middle;fill:black;fill-opacity:1;stroke:none;font-family:Lubalin Graph Book;-inkscape-font-specification:Lubalin Graph Book" id="path3710" inkscape:connector-curvature="0" />
      <path d="m 580.57853,809.6247 -10.00198,0 0,49.27812 c -6e-5,6.79048 -2.42946,12.6151 -7.28818,17.47387 -4.85884,4.85879 -10.68345,7.28818 -17.47387,7.28818 -7.1974,0 -13.43877,-2.35829 -18.72413,-7.07486 -5.4079,-4.83698 -8.11184,-10.73272 -8.11183,-17.68719 l -0.0591,-49.27812 -10.06426,0 0,-7.2586 28.11578,0 0,7.2586 -9.88053,0 0,48.97296 c -3e-5,4.75811 1.77906,8.77353 5.33729,12.04628 3.55816,3.27275 7.79727,4.90913 12.71733,4.90913 4.71655,0 8.79269,-1.63638 12.22846,-4.90913 3.43565,-3.27275 5.15351,-7.24664 5.15356,-11.92173 l 0,-49.09751 -9.45393,0 0,-7.2586 27.50545,0 z" style="font-size:72px;font-style:normal;font-variant:normal;font-weight:normal;font-stretch:normal;text-align:center;line-height:125%;letter-spacing:0px;word-spacing:0px;text-anchor:middle;fill:black;fill-opacity:1;stroke:none;font-family:Lubalin Graph Book;-inkscape-font-specification:Lubalin Graph Book" id="path3712" inkscape:connector-curvature="0" />
      <path d="m 681.79719,881.95843 -15.85931,0 -24.39461,-34.45887 8.72215,0 c 5.53031,3e-5 10.31799,-1.90101 14.36304,-5.70318 4.04496,-3.80207 6.06746,-8.42784 6.06753,-13.87728 -7e-5,-5.12133 -1.78902,-9.45074 -5.36688,-12.98824 -3.57797,-3.53737 -7.9079,-5.30609 -12.9898,-5.30616 l -19.27531,0 0,65.07515 9.33249,0 0,7.25858 -27.75144,0 0,-7.25858 10.36942,0 0,-65.07515 -10.30715,0 0,-7.2586 36.83792,0 c 7.3198,8e-5 13.64214,2.15492 18.96703,6.46455 5.61124,4.55472 8.41691,10.247 8.41698,17.07685 -7e-5,7.23893 -2.27636,13.50105 -6.82888,18.7864 -4.71664,5.48887 -10.51064,8.23329 -17.38201,8.23326 l 16.09907,21.77269 10.97976,0 z" style="font-size:72px;font-style:normal;font-variant:normal;font-weight:normal;font-stretch:normal;text-align:center;line-height:125%;letter-spacing:0px;word-spacing:0px;text-anchor:middle;fill:black;fill-opacity:1;stroke:none;font-family:Lubalin Graph Book;-inkscape-font-specification:Lubalin Graph Book" id="path3714" inkscape:connector-curvature="0" />
      <path d="m 771.70913,822.61294 -8.29555,0 0,-12.98824 -29.76304,0 0,28.54239 30.74082,0 0,6.70743 -30.43566,0 0,29.82533 29.58244,0 0,-13.29654 8.04953,0 0,20.55512 -55.86721,0 0,-7.25858 10.42858,0 0,-65.07515 -10.42858,0 0,-7.2586 55.98867,0 z" style="font-size:72px;font-style:normal;font-variant:normal;font-weight:normal;font-stretch:normal;text-align:center;line-height:125%;letter-spacing:0px;word-spacing:0px;text-anchor:middle;fill:black;fill-opacity:1;stroke:none;font-family:Lubalin Graph Book;-inkscape-font-specification:Lubalin Graph Book" id="path3716" inkscape:connector-curvature="0" />
      <path d="m 855.31225,860.61238 c -1.4e-4,6.30262 -2.2058,11.72035 -6.61717,16.2532 -4.41145,4.53287 -9.7477,6.79929 -16.00877,6.79929 -4.06683,0 -7.5944,-0.70115 -10.58273,-2.10346 -2.98836,-1.40231 -5.74367,-3.6895 -8.26595,-6.86156 l 0,7.25858 -6.3431,0 0,-20.79801 6.52682,0 c 0.69129,4.06683 2.62296,7.62501 5.79504,10.67459 3.37549,3.25305 7.11638,4.87956 11.22265,4.87956 0.32382,0 0.58747,0 0.79094,0 0.28438,0 0.71202,-0.0415 1.28295,-0.12458 4.10621,-0.56881 7.5113,-2.32715 10.21528,-5.27501 2.7039,-2.94786 4.05586,-6.47492 4.05591,-10.58118 -5e-5,-3.65989 -1.24043,-6.79043 -3.72117,-9.39164 -2.27736,-2.39978 -5.36743,-4.14878 -9.2702,-5.247 l -11.58697,-3.29144 c -4.96156,-1.38254 -8.88565,-3.90379 -11.77225,-7.56375 -2.88663,-3.65988 -4.32995,-8.0308 -4.32994,-13.11281 -10e-6,-5.65277 2.14447,-10.44097 6.43341,-14.36462 4.28892,-3.92349 9.36152,-5.88526 15.21783,-5.88534 3.69933,8e-5 6.68767,0.53878 8.96503,1.61613 2.27729,1.0775 4.69682,3.20225 7.2586,6.37425 l 0,-7.5015 6.70743,0 0.0622,20.24685 -6.83198,0 c -0.40692,-4.18714 -2.09417,-7.54138 -5.06171,-10.0627 -2.96762,-2.52118 -6.54605,-3.78181 -10.73531,-3.78188 -3.69938,7e-5 -6.90103,1.1185 -9.60495,3.35527 -2.70396,2.23692 -4.27909,5.14378 -4.72541,8.7206 -0.083,0.73287 -0.12457,1.28196 -0.12457,1.64727 -10e-6,3.1306 0.96583,5.92588 2.89752,8.38585 1.93167,2.46005 4.48354,4.11771 7.65562,4.97296 l 13.72314,3.65888 c 5.12344,1.38263 9.19957,3.95423 12.22845,7.71478 3.02866,3.76064 4.54307,8.22343 4.54321,13.3884 z" style="font-size:72px;font-style:normal;font-variant:normal;font-weight:normal;font-stretch:normal;text-align:center;line-height:125%;letter-spacing:0px;word-spacing:0px;text-anchor:middle;fill:black;fill-opacity:1;stroke:none;font-family:Lubalin Graph Book;-inkscape-font-specification:Lubalin Graph Book" id="path3718" inkscape:connector-curvature="0" />
    </g>
  </g>
</svg>
